<svg xmlns="http://www.w3.org/2000/svg" style="isolation:isolate" viewBox="25.455 104 65.747 95.964" width="65.747" height="95.964"><path d="M89.373 140.011a1.224 1.224 0 0 0-.365-.887l-16.6-16.6a1.223 1.223 0 0 0-.861-.366l-.001-.001H31.351a4.74 4.74 0 0 0-4.74 4.739v66.363a4.74 4.74 0 0 0 4.74 4.74h53.285a4.74 4.74 0 0 0 4.739-4.74v-53.246l-.002-.002z" fill="#F1F1F1"/><path d="M31.701 194.018v-67.071a4.79 4.79 0 0 1 4.79-4.79h-5.09a4.79 4.79 0 0 0-4.79 4.79v67.071a4.79 4.79 0 0 0 4.79 4.79h5.09a4.79 4.79 0 0 1-4.79-4.79zM75.536 141.455h13.246c1.122 0 1.684-1.357.891-2.15l-16.777-16.777c-.793-.793-2.15-.231-2.15.891v13.246a4.79 4.79 0 0 0 4.79 4.79z" opacity=".1"/><g fill="#6537FF"><path d="M45.214 148.621c-5.728 0-10.388-4.88-10.388-10.879 0-5.998 4.66-10.878 10.388-10.878s10.388 4.88 10.388 10.878c0 5.999-4.66 10.879-10.388 10.879zm0-19.444c-4.452 0-8.074 3.843-8.074 8.565 0 4.723 3.622 8.566 8.074 8.566s8.074-3.843 8.074-8.566c0-4.722-3.622-8.565-8.074-8.565z"/><path d="M39.53 141.97a1.156 1.156 0 0 1-1.045-1.651l3.329-7.038a1.158 1.158 0 0 1 2.091 0l3.33 7.038a1.156 1.156 0 1 1-2.091.989l-2.284-4.827-2.284 4.827a1.155 1.155 0 0 1-1.046.662z"/><path d="M45.235 139.991h-4.75a1.157 1.157 0 1 1 0-2.314h4.75a1.156 1.156 0 0 1 0 2.314zM49.45 138.899a1.157 1.157 0 0 1-1.157-1.157v-3.794a1.157 1.157 0 1 1 2.313 0v3.794c0 .639-.517 1.157-1.156 1.157z"/><path d="M51.347 137.002h-3.795a1.157 1.157 0 0 1 0-2.314h3.795a1.157 1.157 0 1 1 0 2.314z"/></g><path d="M37.178 162.554h42.18a1.157 1.157 0 1 0 0-2.314h-42.18a1.157 1.157 0 1 0 0 2.314zm52.866-7.339c-.638 0-1.156.518-1.156 1.157v37.646a3.638 3.638 0 0 1-3.634 3.633H31.401a3.637 3.637 0 0 1-3.633-3.633v-6.028a1.156 1.156 0 0 0-2.313 0v6.028a5.952 5.952 0 0 0 5.946 5.946h53.853a5.953 5.953 0 0 0 5.947-5.946v-37.646c0-.639-.518-1.157-1.157-1.157zm-32.155 28.788c0-.639-.517-1.157-1.156-1.157H36.762a1.157 1.157 0 1 0 0 2.313h19.971c.639 0 1.156-.517 1.156-1.156zM37.178 157.97h42.18a1.157 1.157 0 1 0 0-2.313h-42.18a1.157 1.157 0 1 0 0 2.313zm19.555 12.326H36.762a1.157 1.157 0 1 0 0 2.314h19.971a1.157 1.157 0 1 0 0-2.314zm34.465-30.181l-.001-.006a2.283 2.283 0 0 0-.132-.707c-.007-.023-.016-.045-.025-.067a2.256 2.256 0 0 0-.099-.225l-.025-.05c-.017-.032-.036-.062-.054-.094l-.053-.086a1.356 1.356 0 0 0-.054-.078c-.024-.035-.05-.068-.076-.102-.016-.02-.031-.04-.048-.059a2.26 2.26 0 0 0-.14-.154L73.714 121.71a2.476 2.476 0 0 0-.152-.139l-.06-.048c-.033-.025-.065-.051-.099-.075-.026-.018-.053-.037-.08-.054a1.83 1.83 0 0 0-.082-.051c-.032-.019-.064-.039-.097-.056l-.048-.024a2.498 2.498 0 0 0-.26-.114l-.024-.009a2.051 2.051 0 0 0-.133-.042c-.018-.005-.036-.011-.055-.015a1.927 1.927 0 0 0-.126-.031l-.071-.013c-.04-.006-.079-.014-.118-.018a2.858 2.858 0 0 0-.184-.017l-.014-.001a1.235 1.235 0 0 0-.086-.003H31.401a5.953 5.953 0 0 0-5.946 5.947v54.358a1.156 1.156 0 1 0 2.313 0v-54.358a3.638 3.638 0 0 1 3.633-3.634h38.192c-.001.036-.004.07-.004.106v13.246a5.954 5.954 0 0 0 5.947 5.947h13.246c.036 0 .071-.003.106-.004v7.07a1.157 1.157 0 0 0 2.313 0v-9.474c0-.03-.001-.059-.003-.089zm-2.321.12c-.026.063-.066.063-.095.063H75.536a3.637 3.637 0 0 1-3.633-3.633v-13.246c0-.029 0-.069.063-.095.041-.017.066-.011.085 0 .008.006.017.011.027.022l16.777 16.776c.026.027.03.042.03.065l.001.015c-.002.01-.003.02-.009.033zm-42.134 36.382h.004a1.157 1.157 0 0 0 .005-2.314l-9.986-.039h-.004a1.157 1.157 0 0 0-.005 2.314l9.986.039zm-9.977 10.197h-.004a1.157 1.157 0 0 0-.005 2.313l9.986.039h.004a1.157 1.157 0 0 0 .005-2.313l-9.986-.039z"/></svg>