<?xml version="1.0" encoding="iso-8859-1"?>
<!-- Generator: Adobe Illustrator 19.0.0, SVG Export Plug-In . SVG Version: 6.00 Build 0)  -->
<svg version="1.1" id="Capa_1" xmlns="http://www.w3.org/2000/svg" xmlns:xlink="http://www.w3.org/1999/xlink" x="0px" y="0px"
	 viewBox="0 0 512 512" style="enable-background:new 0 0 512 512;" xml:space="preserve">
<path style="fill:#F1F1F1;" d="M461.631,124.498c0.024-2.038-0.702-4.121-2.392-5.812L350.461,9.909
	c-1.643-1.643-3.657-2.381-5.639-2.4L344.813,7.5H81.409c-17.153,0-31.058,13.905-31.058,31.058v434.884
	c0,17.153,13.905,31.058,31.058,31.058h349.18c17.153,0,31.058-13.905,31.058-31.058V124.514L461.631,124.498z"/>
<path style="opacity:0.1;enable-background:new    ;" d="M83.355,473.442V38.558C83.355,21.405,97.26,7.5,114.413,7.5H81.409
	c-17.153,0-31.058,13.905-31.058,31.058v434.884c0,17.153,13.905,31.058,31.058,31.058h33.004
	C97.26,504.5,83.355,490.595,83.355,473.442z"/>
<path style="opacity:0.1;enable-background:new    ;" d="M367.575,132.63h85.887c7.277,0,10.921-8.798,5.775-13.943L350.461,9.909
	c-5.145-5.146-13.943-1.501-13.943,5.776v85.887C336.517,118.724,350.423,132.63,367.575,132.63z"/>
<g>
	<path style="fill:#E77587;" d="M170.969,179.092c-37.139,0-67.353-31.642-67.353-70.535c0-38.894,30.214-70.536,67.353-70.536
		s67.353,31.642,67.353,70.536C238.322,147.45,208.107,179.092,170.969,179.092z M170.969,53.021
		c-28.868,0-52.353,24.913-52.353,55.536c0,30.622,23.485,55.535,52.353,55.535s52.353-24.913,52.353-55.535
		C223.322,77.934,199.837,53.021,170.969,53.021z"/>
	<path style="fill:#E77587;" d="M134.113,135.971c-1.075,0-2.167-0.232-3.203-0.722c-3.744-1.771-5.343-6.243-3.572-9.987
		l21.588-45.631c1.24-2.621,3.88-4.292,6.78-4.292c2.899,0,5.54,1.671,6.779,4.292l21.589,45.631
		c1.771,3.744,0.172,8.216-3.572,9.987c-3.745,1.773-8.215,0.173-9.987-3.572l-14.81-31.302l-14.809,31.302
		C139.617,134.384,136.923,135.97,134.113,135.971z"/>
	<path style="fill:#E77587;" d="M171.104,123.134h-30.796c-4.142,0-7.5-3.358-7.5-7.5s3.358-7.5,7.5-7.5h30.796
		c4.142,0,7.5,3.358,7.5,7.5S175.246,123.134,171.104,123.134z"/>
	<path style="fill:#E77587;" d="M198.434,116.057c-4.142,0-7.5-3.358-7.5-7.5V83.952c0-4.142,3.358-7.5,7.5-7.5s7.5,3.358,7.5,7.5
		v24.604C205.934,112.699,202.576,116.057,198.434,116.057z"/>
	<path style="fill:#E77587;" d="M210.736,103.754h-24.604c-4.142,0-7.5-3.358-7.5-7.5s3.358-7.5,7.5-7.5h24.604
		c4.142,0,7.5,3.358,7.5,7.5C218.236,100.396,214.878,103.754,210.736,103.754z"/>
	<path style="fill:#E77587;" d="M181.033,371.022h-20.922c-11.269,0-20.437-9.168-20.437-20.437v-20.922
		c0-11.269,9.168-20.436,20.437-20.436h20.922c11.269,0,20.437,9.168,20.437,20.436v20.922
		C201.468,361.853,192.3,371.022,181.033,371.022z M160.11,324.227c-2.998,0-5.437,2.439-5.437,5.436v20.922
		c0,2.997,2.439,5.437,5.437,5.437h20.922c2.998,0,5.437-2.439,5.437-5.437v-20.922c0-2.998-2.439-5.436-5.437-5.436H160.11z"/>
	<path style="fill:#E77587;" d="M181.033,452.393h-20.922c-11.269,0-20.437-9.168-20.437-20.437v-20.922
		c0-11.269,9.168-20.437,20.437-20.437h20.922c11.269,0,20.437,9.168,20.437,20.437v20.922
		C201.468,443.225,192.3,452.393,181.033,452.393z M160.11,405.598c-2.998,0-5.437,2.439-5.437,5.437v20.922
		c0,2.998,2.439,5.437,5.437,5.437h20.922c2.998,0,5.437-2.439,5.437-5.437v-20.922c0-2.998-2.439-5.437-5.437-5.437H160.11z"/>
</g>
<path d="M118.866,269.432h273.49c4.142,0,7.5-3.358,7.5-7.5s-3.358-7.5-7.5-7.5h-273.49c-4.142,0-7.5,3.358-7.5,7.5
	C111.366,266.074,114.724,269.432,118.866,269.432z M461.647,221.85c-4.142,0-7.5,3.358-7.5,7.5v244.092
	c0,12.99-10.568,23.558-23.558,23.558H81.409c-12.99,0-23.558-10.568-23.558-23.558V434.36c0-4.142-3.358-7.5-7.5-7.5
	s-7.5,3.358-7.5,7.5v39.082c0,21.261,17.297,38.558,38.558,38.558h349.18c21.261,0,38.558-17.297,38.558-38.558V229.35
	C469.147,225.208,465.789,221.85,461.647,221.85z M372.325,408.505c0-4.142-3.358-7.5-7.5-7.5H235.335c-4.142,0-7.5,3.358-7.5,7.5
	s3.358,7.5,7.5,7.5h129.491C368.967,416.005,372.325,412.647,372.325,408.505z M118.866,239.711h273.49c4.142,0,7.5-3.358,7.5-7.5
	s-3.358-7.5-7.5-7.5h-273.49c-4.142,0-7.5,3.358-7.5,7.5C111.366,236.353,114.724,239.711,118.866,239.711z M364.825,319.633
	H235.335c-4.142,0-7.5,3.358-7.5,7.5s3.358,7.5,7.5,7.5h129.491c4.142,0,7.5-3.358,7.5-7.5S368.967,319.633,364.825,319.633z
	 M469.125,123.943c0-0.014-0.003-0.027-0.003-0.04c-0.017-0.473-0.049-0.944-0.108-1.412c-0.009-0.072-0.025-0.143-0.035-0.215
	c-0.049-0.346-0.107-0.689-0.178-1.031c-0.044-0.214-0.098-0.424-0.151-0.636c-0.049-0.192-0.1-0.383-0.156-0.574
	c-0.071-0.242-0.145-0.482-0.227-0.72c-0.051-0.145-0.108-0.288-0.163-0.432c-0.19-0.497-0.404-0.984-0.645-1.461
	c-0.054-0.107-0.102-0.216-0.158-0.321c-0.11-0.206-0.233-0.406-0.353-0.608c-0.111-0.188-0.224-0.374-0.343-0.558
	c-0.113-0.173-0.229-0.343-0.349-0.511c-0.158-0.223-0.324-0.441-0.495-0.657c-0.102-0.129-0.201-0.259-0.308-0.385
	c-0.289-0.343-0.59-0.679-0.911-1L355.764,4.606c-0.318-0.318-0.65-0.616-0.989-0.903c-0.127-0.107-0.258-0.206-0.387-0.309
	c-0.212-0.168-0.425-0.331-0.644-0.487c-0.17-0.122-0.343-0.239-0.517-0.353c-0.176-0.115-0.354-0.224-0.534-0.331
	c-0.208-0.125-0.415-0.25-0.627-0.364c-0.103-0.056-0.21-0.104-0.314-0.156c-0.547-0.278-1.107-0.525-1.681-0.735
	c-0.053-0.02-0.105-0.042-0.158-0.061c-0.283-0.1-0.57-0.187-0.859-0.271c-0.119-0.035-0.238-0.069-0.358-0.101
	c-0.272-0.072-0.545-0.138-0.821-0.195c-0.153-0.032-0.307-0.057-0.461-0.084c-0.254-0.044-0.508-0.092-0.765-0.123
	c-0.395-0.05-0.793-0.084-1.192-0.104c-0.031-0.001-0.061-0.007-0.092-0.008C345.182,0.007,344.998,0,344.813,0H81.409
	C60.148,0,42.851,17.297,42.851,38.558v352.453c0,4.142,3.358,7.5,7.5,7.5s7.5-3.358,7.5-7.5V38.558
	C57.851,25.568,68.419,15,81.409,15h247.634c-0.01,0.228-0.025,0.454-0.025,0.684v85.888c0,21.261,17.297,38.558,38.558,38.558
	h85.888c0.23,0,0.456-0.016,0.684-0.025v45.839c0,4.142,3.358,7.5,7.5,7.5s7.5-3.358,7.5-7.5v-61.429
	C469.147,124.323,469.14,124.133,469.125,123.943z M454.08,124.717c-0.17,0.412-0.428,0.412-0.617,0.412h-85.888
	c-12.99,0-23.558-10.568-23.558-23.558V15.684c0-0.189,0-0.446,0.412-0.617c0.264-0.11,0.428-0.07,0.551,0.004
	c0.054,0.035,0.109,0.072,0.177,0.14l108.776,108.777c0.17,0.17,0.199,0.271,0.197,0.421c0,0.031,0.003,0.062,0.003,0.093
	C454.125,124.569,454.114,124.635,454.08,124.717z M300.05,360.615h0.03c4.128,0,7.483-3.339,7.5-7.471
	c0.016-4.142-3.329-7.513-7.471-7.529l-64.746-0.253h-0.03c-4.128,0-7.483,3.339-7.5,7.471c-0.016,4.142,3.329,7.513,7.471,7.529
	L300.05,360.615z M235.363,426.733h-0.03c-4.128,0-7.483,3.339-7.5,7.471c-0.016,4.142,3.329,7.513,7.471,7.529l64.746,0.253h0.03
	c4.128,0,7.483-3.339,7.5-7.471c0.016-4.142-3.329-7.513-7.471-7.529L235.363,426.733z"/>
<g>
</g>
<g>
</g>
<g>
</g>
<g>
</g>
<g>
</g>
<g>
</g>
<g>
</g>
<g>
</g>
<g>
</g>
<g>
</g>
<g>
</g>
<g>
</g>
<g>
</g>
<g>
</g>
<g>
</g>
</svg>
