<svg xmlns="http://www.w3.org/2000/svg" style="isolation:isolate" viewBox="276.305 446.5 62.695 78" width="62.695" height="78"><path d="M331.962 523.365h1.003c2.705 0 4.9-2.195 4.9-4.9v-65.93c0-2.705-2.195-4.9-4.9-4.9h-1.003v75.73z" fill="#FFF"/><path fill="#6537FF" d="M317.736 447.465h4.994v75.73h-4.994z"/><path d="M322.465 523.365h7.284a4.602 4.602 0 0 0 4.597-4.597v-66.536a4.602 4.602 0 0 0-4.597-4.597h-7.284v75.73z" fill="#6537FF" fill-opacity=".74"/><path fill="#FFF" d="M314.198 447.635h3.821v75.73h-3.821z"/><path fill="#3769A5" d="M297.266 447.465h5.789v75.73h-5.789z"/><path fill="#4E9BD4" d="M302.28 447.635h11.937v75.73H302.28z"/><path fill="#FFF" d="M294.069 447.635h3.821v75.73h-3.821z"/><path d="M283.229 523.195h1.457v-75.73h-1.457a5.79 5.79 0 0 0-5.789 5.789v64.152a5.79 5.79 0 0 0 5.789 5.789z" fill="#FD8B9A"/><path d="M286.994 523.365h7.075v-75.73h-7.075a4.921 4.921 0 0 0-4.919 4.919v65.911c.019 2.686 2.213 4.9 4.919 4.9z" fill="#FCCDD3"/><path d="M318.36 489.407h18.862a.638.638 0 0 0 .643-.644v-17.272a.638.638 0 0 0-.643-.643H318.36a.638.638 0 0 0-.643.643v17.272c0 .341.303.644.643.644z" fill="#FFE4B8"/><path d="M298.231 489.407h18.843a.638.638 0 0 0 .643-.644v-17.272a.638.638 0 0 0-.643-.643h-18.862a.638.638 0 0 0-.643.643v17.272c.019.341.303.644.662.644z" fill="#FFE4B8"/><path fill="#FFE4B8" d="M277.44 471.094h20.148v18.559H277.44z"/><path fill="#FFF" d="M334.346 471.094h3.519v17.916h-3.519zM314.217 471.094h3.197v17.916h-3.197zM294.069 471.094h3.197v17.916h-3.197z"/><path fill="#E7D0A9" d="M278.329 471.094h3.765v17.916h-3.765zM298.496 471.169h3.784v17.916h-3.784zM318.701 471.169h3.765v17.916h-3.765z"/><path d="M321.974 478.037h11.634c.625 0 1.135-.511 1.135-1.135 0-.625-.51-1.135-1.135-1.135h-11.634c-.625 0-1.136.51-1.136 1.135 0 .624.511 1.135 1.136 1.135zM321.974 482.199h11.634c.625 0 1.135-.511 1.135-1.135 0-.625-.51-1.135-1.135-1.135h-11.634c-.625 0-1.136.51-1.136 1.135 0 .624.511 1.135 1.136 1.135z"/><path d="M290.323 515.362a2.82 2.82 0 1 0-2.819 2.819 2.82 2.82 0 0 0 2.819-2.819z" fill="#FFF"/><path d="M282.34 446.5h15.248c.624 0 1.135.511 1.135 1.135v75.711c0 .624-.511 1.135-1.135 1.135H282.34a6.039 6.039 0 0 1-6.035-6.035v-15.38c0-.625.511-1.135 1.135-1.135s1.135.51 1.135 1.135v15.38a3.763 3.763 0 0 0 3.765 3.765h14.113v-31.404h-17.878v9.497c0 .624-.511 1.135-1.135 1.135a1.139 1.139 0 0 1-1.135-1.135V452.535a6.039 6.039 0 0 1 6.035-6.035zm-3.765 42.036h17.878v-16.288h-17.878v16.288zm0-18.558h17.878V448.77H282.34a3.763 3.763 0 0 0-3.765 3.765v17.443z"/><path d="M293.331 478.037h-11.634a1.139 1.139 0 0 1-1.136-1.135c0-.625.511-1.135 1.136-1.135h11.634c.625 0 1.135.51 1.135 1.135 0 .624-.51 1.135-1.135 1.135zM293.331 482.199h-11.634a1.139 1.139 0 0 1-1.136-1.135c0-.625.511-1.135 1.136-1.135h11.634c.625 0 1.135.51 1.135 1.135 0 .624-.51 1.135-1.135 1.135zM291.458 515.362a3.964 3.964 0 0 1-3.954 3.954 3.964 3.964 0 0 1-3.953-3.954 3.964 3.964 0 0 1 3.953-3.953 3.964 3.964 0 0 1 3.954 3.953zm-5.637 0c0 .927.756 1.684 1.683 1.684s1.684-.757 1.684-1.684c0-.927-.757-1.683-1.684-1.683-.927 0-1.683.756-1.683 1.683z"/><path d="M330.619 515.362a2.82 2.82 0 1 0-2.819 2.819 2.82 2.82 0 0 0 2.819-2.819z" fill="#FFF"/><g><path d="M337.865 504.749c-.624 0-1.135-.51-1.135-1.135v-3.329c0-.625.511-1.135 1.135-1.135s1.135.51 1.135 1.135v3.329c0 .625-.511 1.135-1.135 1.135z"/><path d="M317.717 446.5h15.248a6.039 6.039 0 0 1 6.035 6.035v6.262c0 .624-.511 1.135-1.135 1.135a1.139 1.139 0 0 1-1.135-1.135v-6.262a3.763 3.763 0 0 0-3.765-3.765h-14.113v21.208h17.878v-8.589c0-.625.511-1.135 1.135-1.135s1.135.51 1.135 1.135v36.171c0 .625-.511 1.135-1.135 1.135s-1.135-.51-1.135-1.135v-6.753h-17.878v31.423h14.113a3.763 3.763 0 0 0 3.765-3.765v-11.918c0-.625.511-1.136 1.135-1.136s1.135.511 1.135 1.136v11.918a6.039 6.039 0 0 1-6.035 6.035h-15.248a1.139 1.139 0 0 1-1.135-1.135v-75.73c0-.624.511-1.135 1.135-1.135zm1.135 42.036h17.878v-16.288h-17.878v16.288z"/><path d="M323.846 515.362a3.964 3.964 0 0 1 3.954-3.953 3.964 3.964 0 0 1 3.954 3.953 3.964 3.964 0 0 1-3.954 3.954 3.965 3.965 0 0 1-3.954-3.954zm5.638 0c0-.927-.757-1.683-1.684-1.683-.927 0-1.683.756-1.683 1.683s.756 1.684 1.683 1.684 1.684-.757 1.684-1.684z"/></g><path d="M310.471 515.362a2.82 2.82 0 1 0-2.819 2.819 2.82 2.82 0 0 0 2.819-2.819z" fill="#FFF"/><g><path d="M297.569 446.5h20.148c.624 0 1.135.511 1.135 1.135V523.365c0 .624-.511 1.135-1.135 1.135h-20.148a1.139 1.139 0 0 1-1.135-1.135v-75.73c0-.624.511-1.135 1.135-1.135zm1.135 75.73h17.878v-31.423h-17.878v31.423zm0-33.694h17.878v-16.288h-17.878v16.288zm0-18.558h17.878V448.77h-17.878v21.208z"/><path d="M313.46 478.037h-11.634a1.138 1.138 0 0 1-1.135-1.135c0-.625.51-1.135 1.135-1.135h11.634c.625 0 1.135.51 1.135 1.135 0 .624-.51 1.135-1.135 1.135zM313.46 482.199h-11.634a1.138 1.138 0 0 1-1.135-1.135c0-.625.51-1.135 1.135-1.135h11.634c.625 0 1.135.51 1.135 1.135 0 .624-.51 1.135-1.135 1.135zM307.652 519.316a3.964 3.964 0 0 1-3.953-3.954 3.964 3.964 0 0 1 3.953-3.953 3.964 3.964 0 0 1 3.954 3.953 3.964 3.964 0 0 1-3.954 3.954zm0-5.637c-.927 0-1.683.756-1.683 1.683s.756 1.684 1.683 1.684 1.684-.757 1.684-1.684c0-.927-.757-1.683-1.684-1.683z"/></g></svg>