<svg xmlns="http://www.w3.org/2000/svg" style="isolation:isolate" viewBox="267.691 236.5 80.809 73.043" width="80.809" height="73.043"><path d="M272.691 251v47.723c0 3.209 2.482 5.82 5.532 5.82h59.745c3.05 0 5.532-2.611 5.532-5.82V251h-70.809z" fill="#BBC4EF" vector-effect="non-scaling-stroke" stroke-width="2.5" stroke="#000"/><path d="M337.968 238.16h-59.745a5.538 5.538 0 0 0-5.532 5.532v9.957H343.5v-9.957a5.538 5.538 0 0 0-5.532-5.532zm-56.426 11.063a3.319 3.319 0 1 1 0-6.638 3.319 3.319 0 0 1 0 6.638zm53.107 0a3.319 3.319 0 1 1 0-6.638 3.319 3.319 0 0 1 0 6.638z" fill="#62BCFA" vector-effect="non-scaling-stroke" stroke-width="2.5" stroke="#000"/><path d="M308.096 263.607a4.43 4.43 0 0 0-4.426 4.425 4.43 4.43 0 0 0 4.426 4.426 4.43 4.43 0 0 0 4.425-4.426 4.43 4.43 0 0 0-4.425-4.425zM297.032 263.607a4.43 4.43 0 0 0-4.426 4.425 4.43 4.43 0 0 0 4.426 4.426 4.43 4.43 0 0 0 4.425-4.426 4.43 4.43 0 0 0-4.425-4.425zM285.968 263.607a4.43 4.43 0 0 0-4.426 4.425 4.43 4.43 0 0 0 4.426 4.426 4.43 4.43 0 0 0 4.425-4.426 4.43 4.43 0 0 0-4.425-4.425zM319.159 263.607a4.43 4.43 0 0 0-4.425 4.425 4.43 4.43 0 0 0 4.425 4.426 4.43 4.43 0 0 0 4.426-4.426 4.43 4.43 0 0 0-4.426-4.425zM330.223 272.458a4.43 4.43 0 0 0 4.426-4.426 4.43 4.43 0 0 0-4.426-4.425 4.43 4.43 0 0 0-4.425 4.425 4.43 4.43 0 0 0 4.425 4.426zM308.096 274.67a4.43 4.43 0 0 0-4.426 4.426 4.43 4.43 0 0 0 4.426 4.426 4.43 4.43 0 0 0 4.425-4.426 4.43 4.43 0 0 0-4.425-4.426zM297.032 274.67a4.43 4.43 0 0 0-4.426 4.426 4.43 4.43 0 0 0 4.426 4.426 4.43 4.43 0 0 0 4.425-4.426 4.43 4.43 0 0 0-4.425-4.426zM285.968 274.67a4.43 4.43 0 0 0-4.426 4.426 4.43 4.43 0 0 0 4.426 4.426 4.43 4.43 0 0 0 4.425-4.426 4.43 4.43 0 0 0-4.425-4.426zM319.159 274.67a4.43 4.43 0 0 0-4.425 4.426 4.43 4.43 0 0 0 4.425 4.426 4.43 4.43 0 0 0 4.426-4.426 4.43 4.43 0 0 0-4.426-4.426zM330.223 274.67a4.43 4.43 0 0 0-4.425 4.426 4.43 4.43 0 0 0 4.425 4.426 4.43 4.43 0 0 0 4.426-4.426 4.43 4.43 0 0 0-4.426-4.426zM308.096 285.734a4.43 4.43 0 0 0-4.426 4.426 4.43 4.43 0 0 0 4.426 4.425 4.43 4.43 0 0 0 4.425-4.425 4.43 4.43 0 0 0-4.425-4.426zM297.032 285.734a4.43 4.43 0 0 0-4.426 4.426 4.43 4.43 0 0 0 4.426 4.425 4.43 4.43 0 0 0 4.425-4.425 4.43 4.43 0 0 0-4.425-4.426zM285.968 285.734a4.43 4.43 0 0 0-4.426 4.426 4.43 4.43 0 0 0 4.426 4.425 4.43 4.43 0 0 0 4.425-4.425 4.43 4.43 0 0 0-4.425-4.426zM319.159 285.734a4.43 4.43 0 0 0-4.425 4.426 4.43 4.43 0 0 0 4.425 4.425 4.43 4.43 0 0 0 4.426-4.425 4.43 4.43 0 0 0-4.426-4.426zM330.223 285.734a4.43 4.43 0 0 0-4.425 4.426 4.43 4.43 0 0 0 4.425 4.425 4.43 4.43 0 0 0 4.426-4.425 4.43 4.43 0 0 0-4.426-4.426z" fill="#FFF"/><g><path d="M281.542 247.564a1.66 1.66 0 0 1-1.659-1.66v-7.744a1.66 1.66 0 1 1 3.319 0v7.744a1.66 1.66 0 0 1-1.66 1.66z" fill="#F1F1F1"/></g><g><path d="M334.649 247.564a1.66 1.66 0 0 1-1.66-1.66v-7.744a1.66 1.66 0 0 1 3.319 0v7.744a1.66 1.66 0 0 1-1.659 1.66z" fill="#F1F1F1"/></g><g><path d="M281.542 268.032a4.428 4.428 0 0 1 4.426-4.425 4.427 4.427 0 0 1 4.425 4.425 4.428 4.428 0 0 1-4.425 4.426 4.428 4.428 0 0 1-4.426-4.426z" fill="#FCCDD3"/></g><g><path d="M303.67 290.16a4.428 4.428 0 0 1 4.426-4.426 4.428 4.428 0 0 1 4.425 4.426 4.427 4.427 0 0 1-4.425 4.425 4.428 4.428 0 0 1-4.426-4.425z" fill="#FCCDD3"/></g><g><path d="M314.734 279.096a4.428 4.428 0 0 1 4.425-4.426 4.428 4.428 0 0 1 4.426 4.426 4.428 4.428 0 0 1-4.426 4.426 4.428 4.428 0 0 1-4.425-4.426z" fill="#FCCDD3"/></g></svg>