<svg xmlns="http://www.w3.org/2000/svg" style="isolation:isolate" viewBox="24 329.706 67.938 87.297" width="67.938" height="87.297"><path d="M57.969 331.985a4.715 4.715 0 0 0-4.716 4.716v4.624h9.432v-4.624a4.716 4.716 0 0 0-4.716-4.716z" fill="#858384"/><path d="M85.019 341.325H30.918a5.64 5.64 0 0 0-5.639 5.64v64.12a5.64 5.64 0 0 0 5.639 5.64h54.101a5.64 5.64 0 0 0 5.64-5.64v-64.12a5.64 5.64 0 0 0-5.64-5.64z" fill="#62BCFA"/><path d="M37.051 342.164v7.581c0 4.209 3.424 7.633 7.633 7.633h26.57c4.209 0 7.633-3.424 7.633-7.633v-7.581c0-.283-.017-.563-.047-.839H37.098c-.03.276-.047.556-.047.839z" fill="#A3AFEC"/><path d="M78.999 349.467H36.938a3.357 3.357 0 0 0-3.357 3.358v51.671a3.357 3.357 0 0 0 3.357 3.357h42.061a3.357 3.357 0 0 0 3.357-3.357v-51.671a3.357 3.357 0 0 0-3.357-3.358z" fill="#EFEDEE"/><path d="M37.051 349.467v.278c0 4.209 3.424 7.633 7.633 7.633h26.57c4.209 0 7.633-3.424 7.633-7.633v-.278H37.051z" fill="#D4D2D3"/><path d="M71.254 338.794h-26.57a3.37 3.37 0 0 0-3.371 3.37v7.581a3.37 3.37 0 0 0 3.371 3.37h26.57a3.37 3.37 0 0 0 3.37-3.37v-7.581a3.37 3.37 0 0 0-3.37-3.37z" fill="#9E9C9D"/><path d="M48.009 360.614l-5.722 2.861v-.679a1.279 1.279 0 1 0-2.558 0v2.748c0 .931 1.015 1.562 1.851 1.144l7.572-3.786a1.279 1.279 0 0 0-1.143-2.288zM56.587 362.372a1.279 1.279 0 0 0 0 2.558h18.342a1.28 1.28 0 0 0 0-2.558H56.587zM48.009 370.62l-5.722 2.861v-.679a1.279 1.279 0 1 0-2.558 0v2.748c0 .926 1.026 1.557 1.851 1.144l7.572-3.786a1.279 1.279 0 0 0-1.143-2.288zM74.929 372.378H56.587a1.279 1.279 0 0 0 0 2.558h18.342a1.28 1.28 0 0 0 0-2.558zM48.009 380.627l-5.722 2.86v-.679a1.28 1.28 0 0 0-2.558 0v2.748c0 .932 1.014 1.563 1.851 1.144l7.572-3.786a1.279 1.279 0 1 0-1.143-2.287zM74.929 382.385H56.587a1.278 1.278 0 1 0 0 2.557h18.342a1.279 1.279 0 1 0 0-2.557zM48.009 390.633l-5.722 2.861v-.679a1.279 1.279 0 1 0-2.558 0v2.748c0 .932 1.015 1.562 1.851 1.144l7.572-3.786a1.279 1.279 0 0 0-1.143-2.288zM74.929 393.327H56.587a1.278 1.278 0 1 0 0 2.557h18.342a1.279 1.279 0 1 0 0-2.557z"/><path d="M85.019 414.446H43.325a1.278 1.278 0 1 0 0 2.557h41.694c3.815 0 6.919-3.103 6.919-6.918v-64.12a6.927 6.927 0 0 0-6.919-6.919H75.39a4.653 4.653 0 0 0-4.137-2.531h-7.289v-.814a6.002 6.002 0 0 0-5.995-5.995 6.001 6.001 0 0 0-5.995 5.995v.814h-7.29a4.654 4.654 0 0 0-4.137 2.531h-9.629c-3.815 0-6.918 3.104-6.918 6.919v64.12a6.925 6.925 0 0 0 6.918 6.918h7.292a1.278 1.278 0 1 0 0-2.557h-7.292a4.365 4.365 0 0 1-4.36-4.361v-64.12a4.365 4.365 0 0 1 4.36-4.361h9.117v5.584h-3.096a4.642 4.642 0 0 0-4.637 4.636v51.672a4.642 4.642 0 0 0 4.637 4.636h42.06a4.641 4.641 0 0 0 4.636-4.636v-51.671a4.641 4.641 0 0 0-4.636-4.637h-3.096v-5.584h9.116a4.366 4.366 0 0 1 4.361 4.361v64.12a4.366 4.366 0 0 1-4.361 4.361zm-30.488-78.745a3.441 3.441 0 0 1 3.438-3.437 3.441 3.441 0 0 1 3.437 3.437v.814h-6.875v-.814zm16.723 3.372c1.127 0 2.091.962 2.091 2.091v7.581c0 1.132-.958 2.092-2.091 2.092h-3.682a1.3 1.3 0 0 0-1.279 1.279 1.28 1.28 0 0 0 1.279 1.279h3.682c2.109 0 4.062-1.56 4.531-3.613l.009-.036h3.205c1.146 0 2.079.933 2.079 2.079v51.671a2.081 2.081 0 0 1-2.079 2.079H36.938a2.08 2.08 0 0 1-2.078-2.079v-51.671a2.08 2.08 0 0 1 2.078-2.079h3.205l.009.036c.476 2.056 2.421 3.612 4.532 3.612h17.773c.706 0 1.279-.572 1.279-1.278a1.3 1.3 0 0 0-1.279-1.279H44.684c-.937 0-1.732-.62-1.998-1.471-.092-.295-.094-.593-.094-.899v-7.303c0-1.137.956-2.091 2.092-2.091h26.57z"/></svg>